<svg width="80" height="80" viewBox="0 0 80 80" fill="none" xmlns="http://www.w3.org/2000/svg">
<path d="M27.6066 35.5376C24.5645 35.5376 22.0984 38.0037 22.0984 41.0458V62.1606H33.1148C36.1569 62.1606 38.623 59.6944 38.623 56.6524V35.5376H27.6066ZM49.6395 35.5376V60.4427C49.6394 66.5971 44.934 71.6515 38.9246 72.2071C38.8301 72.24 38.7288 72.2587 38.623 72.2587H12.4727C12.2116 72.2587 12 72.0471 12 71.786V36.3376C12 29.8117 17.2905 24.5212 23.8164 24.5212C23.8994 24.5211 37.7051 24.456 37.7051 24.5212V8.91455C37.7051 8.40756 38.1161 7.99658 38.623 7.99658H49.0031C49.3545 7.99661 49.6395 8.28153 49.6395 8.63291V24.5212H56.1836C62.7095 24.5212 68 29.8117 68 36.3376V71.786C68 72.0471 67.7884 72.2587 67.5273 72.2587H56.9836C56.4766 72.2587 56.0656 71.8477 56.0656 71.3407V39.6688C56.0656 37.3873 54.2159 35.5376 51.9344 35.5376H49.6395Z" fill="#2ACAA7"/>
</svg>
